<?xml version="1.0" standalone="no"?>
<!DOCTYPE svg PUBLIC "-//W3C//DTD SVG 20010904//EN"
 "http://www.w3.org/TR/2001/REC-SVG-20010904/DTD/svg10.dtd">
<svg version="1.0" xmlns="http://www.w3.org/2000/svg"
 width="938.000000pt" height="938.000000pt" viewBox="0 0 938.000000 938.000000"
 preserveAspectRatio="xMidYMid meet">
<metadata>
Created by potrace 1.11, written by Peter Selinger 2001-2013
</metadata>
<g transform="translate(0.000000,938.000000) scale(0.100000,-0.100000)"
fill="#000000" stroke="none">
<path d="M4418 9375 c-1 -1 -52 -6 -112 -10 -60 -4 -117 -8 -127 -10 -10 -2
-44 -6 -76 -10 -64 -7 -115 -13 -153 -20 -14 -3 -41 -7 -60 -10 -103 -16 -341
-69 -450 -100 -69 -19 -132 -37 -140 -39 -76 -20 -334 -115 -465 -171 -127
-54 -381 -180 -443 -219 -23 -14 -44 -26 -46 -26 -10 0 -192 -114 -304 -190
-246 -167 -450 -337 -672 -560 -164 -164 -223 -227 -280 -300 -19 -25 -37 -47
-40 -50 -16 -16 -127 -158 -185 -239 -274 -381 -499 -828 -644 -1276 -49 -150
-114 -394 -136 -510 -8 -44 -17 -89 -19 -100 -25 -129 -27 -206 -24 -890 l4
-720 37 -170 c21 -93 40 -181 43 -195 20 -96 121 -415 174 -550 12 -30 27 -71
35 -90 120 -313 343 -707 588 -1039 246 -333 612 -700 957 -956 340 -252 714
-460 1095 -607 53 -20 264 -97 268 -97 1 0 9 -2 17 -5 17 -6 130 -39 145 -42
6 -1 53 -14 105 -28 97 -27 355 -80 445 -92 28 -3 59 -8 70 -10 11 -2 54 -7
95 -10 41 -4 78 -8 82 -11 42 -24 826 -23 958 2 8 1 42 6 75 9 210 24 532 87
690 136 401 124 555 184 836 325 369 185 661 382 989 664 76 66 332 318 406
401 315 352 604 800 796 1235 195 441 326 940 376 1430 16 159 7 917 -12 1035
-2 14 -10 66 -16 115 -7 50 -14 95 -15 100 -4 19 -15 80 -19 105 -56 330 -212
798 -381 1148 -239 493 -530 900 -919 1287 -177 176 -206 202 -364 329 -444
356 -914 614 -1447 794 -233 78 -457 134 -705 176 -47 8 -110 18 -140 21 -30
4 -57 8 -60 10 -3 1 -43 6 -90 9 -47 4 -98 9 -115 12 -34 6 -621 14 -627 9z"/>
</g>
</svg>
